#N canvas 101 23 1920 986 10;
#X floatatom 34 -126 3 0 0 0 - - -;
#X obj 55 -102 bng 20 250 50 0 empty empty empty 17 7 0 10 -262144
-1 -1;
#X obj 70 -122 outlet;
#X floatatom 19 405 3 0 0 0 - - -;
#X obj 28 430 bng 20 250 50 0 empty empty empty 17 7 0 10 -262144 -1
-1;
#X obj 55 411 outlet;
#X floatatom 14 837 3 0 0 0 - - -;
#X obj 23 859 bng 20 250 50 0 empty empty empty 17 7 0 10 -262144 -1
-1;
#X obj 50 843 outlet;
#X obj 19 380 ctlin 18 1;
#X obj 14 812 ctlin 19 1;
#X floatatom 578 120 3 0 0 0 - - -;
#X obj 598 145 bng 20 250 50 0 empty empty empty 17 7 0 10 -262144
-1 -1;
#X obj 614 126 outlet;
#X floatatom 673 118 3 0 0 0 - - -;
#X obj 693 143 bng 20 250 50 0 empty empty empty 17 7 0 10 -262144
-1 -1;
#X obj 709 124 outlet;
#X floatatom 766 119 3 0 0 0 - - -;
#X obj 786 144 bng 20 250 50 0 empty empty empty 17 7 0 10 -262144
-1 -1;
#X obj 802 125 outlet;
#X obj 188 -126 outlet;
#X floatatom 245 -131 3 0 0 0 - - -;
#X obj 251 -109 bng 20 250 50 0 empty empty empty 17 7 0 10 -262144
-1 -1;
#X obj 281 -125 outlet;
#X floatatom 340 -133 3 0 0 0 - - -;
#X obj 354 -108 bng 20 250 50 0 empty empty empty 17 7 0 10 -262144
-1 -1;
#X obj 376 -127 outlet;
#X floatatom 479 -132 3 0 0 0 - - -;
#X obj 507 -109 bng 20 250 50 0 empty empty empty 17 7 0 10 -262144
-1 -1;
#X obj 515 -131 outlet;
#X floatatom 580 -139 3 0 0 0 - - -;
#X obj 607 -112 bng 20 250 50 0 empty empty empty 17 7 0 10 -262144
-1 -1;
#X obj 613 -137 outlet;
#X floatatom 675 -141 3 0 0 0 - - -;
#X obj 692 -115 bng 20 250 50 0 empty empty empty 17 7 0 10 -262144
-1 -1;
#X obj 711 -135 outlet;
#X floatatom 768 -140 3 0 0 0 - - -;
#X obj 782 -120 bng 20 250 50 0 empty empty empty 17 7 0 10 -262144
-1 -1;
#X obj 804 -134 outlet;
#X obj 176 404 outlet;
#X floatatom 233 399 3 0 0 0 - - -;
#X obj 239 422 bng 20 250 50 0 empty empty empty 17 7 0 10 -262144
-1 -1;
#X obj 269 405 outlet;
#X floatatom 328 397 3 0 0 0 - - -;
#X obj 347 422 bng 20 250 50 0 empty empty empty 17 7 0 10 -262144
-1 -1;
#X obj 364 403 outlet;
#X floatatom 467 398 3 0 0 0 - - -;
#X obj 488 422 bng 20 250 50 0 empty empty empty 17 7 0 10 -262144
-1 -1;
#X obj 503 399 outlet;
#X floatatom 568 391 3 0 0 0 - - -;
#X obj 581 415 bng 20 250 50 0 empty empty empty 17 7 0 10 -262144
-1 -1;
#X obj 604 397 outlet;
#X floatatom 663 389 3 0 0 0 - - -;
#X obj 682 415 bng 20 250 50 0 empty empty empty 17 7 0 10 -262144
-1 -1;
#X obj 699 395 outlet;
#X floatatom 756 390 3 0 0 0 - - -;
#X obj 770 412 bng 20 250 50 0 empty empty empty 17 7 0 10 -262144
-1 -1;
#X obj 792 396 outlet;
#X floatatom 139 407 3 0 0 0 - - -;
#X obj 149 428 bng 20 250 50 0 empty empty empty 17 7 0 10 -262144
-1 -1;
#X floatatom 152 -128 3 0 0 0 - - -;
#X obj 160 -106 bng 20 250 50 0 empty empty empty 17 7 0 10 -262144
-1 -1;
#X obj 147 840 outlet;
#X floatatom 204 835 3 0 0 0 - - -;
#X obj 211 855 bng 20 250 50 0 empty empty empty 17 7 0 10 -262144
-1 -1;
#X obj 240 841 outlet;
#X floatatom 299 833 3 0 0 0 - - -;
#X obj 309 856 bng 20 250 50 0 empty empty empty 17 7 0 10 -262144
-1 -1;
#X obj 335 839 outlet;
#X floatatom 438 834 3 0 0 0 - - -;
#X obj 449 855 bng 20 250 50 0 empty empty empty 17 7 0 10 -262144
-1 -1;
#X obj 474 835 outlet;
#X floatatom 539 827 3 0 0 0 - - -;
#X obj 549 849 bng 20 250 50 0 empty empty empty 17 7 0 10 -262144
-1 -1;
#X obj 575 833 outlet;
#X floatatom 634 825 3 0 0 0 - - -;
#X obj 646 847 bng 20 250 50 0 empty empty empty 17 7 0 10 -262144
-1 -1;
#X obj 670 831 outlet;
#X floatatom 727 826 3 0 0 0 - - -;
#X obj 740 849 bng 20 250 50 0 empty empty empty 17 7 0 10 -262144
-1 -1;
#X obj 763 832 outlet;
#X floatatom 111 833 3 0 0 0 - - -;
#X obj 120 854 bng 20 250 50 0 empty empty empty 17 7 0 10 -262144
-1 -1;
#X obj 141 373 ctlin 22 1;
#X obj 111 809 ctlin 23 1;
#X obj 233 374 ctlin 26 1;
#X obj 204 810 ctlin 27 1;
#X obj 328 372 ctlin 30 1;
#X obj 299 808 ctlin 31 1;
#X obj 467 368 ctlin 48 1;
#X obj 438 804 ctlin 49 1;
#X obj 539 802 ctlin 53 1;
#X obj 634 800 ctlin 57 1;
#X obj 727 801 ctlin 61 1;
#X floatatom 1006 833 3 0 0 0 - - -;
#X obj 1016 855 bng 20 250 50 0 empty empty empty 17 7 0 10 -262144
-1 -1;
#X obj 1042 839 outlet;
#X obj 1006 808 ctlin 62 1;
#X obj 568 366 ctlin 52 1;
#X obj 663 365 ctlin 56 1;
#X obj 756 366 ctlin 60 1;
#X obj 578 169 knob 32 32 0 127 0 0 empty empty empty 0 -8 0 8 -262144
-1 -1 0 1;
#X obj 673 169 knob 32 32 0 127 0 0 empty empty empty 0 -8 0 8 -262144
-1 -1 0 1;
#X obj 34 -75 knob 32 32 0 127 0 0 empty empty empty 0 -8 0 8 -262144
-1 -1 0 1;
#X obj 152 -74 knob 32 32 0 127 0 0 empty empty empty 0 -8 0 8 -262144
-1 -1 0 1;
#X obj 244 -74 knob 32 32 0 127 0 0 empty empty empty 0 -8 0 8 -262144
-1 -1 0 1;
#X obj 19 455 knob 32 32 0 127 0 0 empty empty empty 0 -8 0 8 -262144
-1 -1 708 1;
#X obj 139 450 knob 32 32 0 127 0 0 empty empty empty 0 -8 0 8 -262144
-1 -1 0 1;
#X obj 233 449 knob 32 32 0 127 0 0 empty empty empty 0 -8 0 8 -262144
-1 -1 244 1;
#X obj 479 -89 knob 32 32 0 127 0 0 empty empty empty 0 -8 0 8 -262144
-1 -1 0 1;
#X obj 580 -91 knob 32 32 0 127 0 0 empty empty empty 0 -8 0 8 -262144
-1 -1 0 1;
#X obj 675 -91 knob 32 32 0 127 0 0 empty empty empty 0 -8 0 8 -262144
-1 -1 0 1;
#X obj 467 445 knob 32 32 0 127 0 0 empty empty empty 0 -8 0 8 -262144
-1 -1 1562 1;
#X obj 568 439 knob 32 32 0 127 0 0 empty empty empty 0 -8 0 8 -262144
-1 -1 1953 1;
#X obj 663 436 knob 32 32 0 127 0 0 empty empty empty 0 -8 0 8 -262144
-1 -1 2148 1;
#X obj 340 -85 knob 32 32 0 127 0 0 empty empty empty 0 -8 0 8 -262144
-1 -1 0 1;
#X obj 328 445 knob 32 32 0 127 0 0 empty empty empty 0 -8 0 8 -262144
-1 -1 0 1;
#X obj 765 167 knob 32 32 0 127 0 0 empty empty empty 0 -8 0 8 -262144
-1 -1 0 1;
#X obj 768 -96 knob 32 32 0 127 0 0 empty empty empty 0 -8 0 8 -262144
-1 -1 0 1;
#X obj 756 435 knob 32 32 0 127 0 0 empty empty empty 0 -8 0 8 -262144
-1 -1 1562 1;
#X obj 14 887 vsl 15 128 0 127 0 0 empty empty empty 0 -9 0 10 -262144
-1 -1 5800 1;
#X obj 111 884 vsl 15 128 0 127 0 0 empty empty empty 0 -9 0 10 -262144
-1 -1 0 1;
#X obj 204 884 vsl 15 128 0 127 0 0 empty empty empty 0 -9 0 10 -262144
-1 -1 0 1;
#X obj 299 883 vsl 15 128 0 127 0 0 empty empty empty 0 -9 0 10 -262144
-1 -1 0 1;
#X obj 438 883 vsl 15 128 0 127 0 0 empty empty empty 0 -9 0 10 -262144
-1 -1 0 1;
#X obj 539 875 vsl 15 128 0 127 0 0 empty empty empty 0 -9 0 10 -262144
-1 -1 0 1;
#X obj 634 874 vsl 15 128 0 127 0 0 empty empty empty 0 -9 0 10 -262144
-1 -1 0 1;
#X obj 727 875 vsl 15 128 0 127 0 0 empty empty empty 0 -9 0 10 -262144
-1 -1 0 1;
#X obj 1006 886 vsl 15 128 0 127 0 0 empty empty empty 0 -9 0 10 -262144
-1 -1 0 1;
#X text 1016 778 MASTER;
#X floatatom 11 702 3 0 0 0 - - -;
#X floatatom 69 704 3 0 0 0 - - -;
#X obj 12 678 notein 1 3;
#X floatatom 1243 649 3 0 0 0 - - -;
#X floatatom 1306 648 3 0 0 0 - - -;
#X floatatom 107 647 3 0 0 0 - - -;
#X floatatom 164 647 3 0 0 0 - - -;
#X floatatom 109 705 3 0 0 0 - - -;
#X floatatom 166 705 3 0 0 0 - - -;
#X floatatom 203 646 3 0 0 0 - - -;
#X obj 203 622 notein 1 1;
#X floatatom 260 646 3 0 0 0 - - -;
#X floatatom 205 704 3 0 0 0 - - -;
#X floatatom 262 704 3 0 0 0 - - -;
#X obj 205 678 notein 1 3;
#X floatatom 303 644 3 0 0 0 - - -;
#X obj 303 620 notein 1 1;
#X floatatom 360 644 3 0 0 0 - - -;
#X floatatom 305 702 3 0 0 0 - - -;
#X floatatom 362 702 3 0 0 0 - - -;
#X obj 305 676 notein 1 3;
#X floatatom 450 643 3 0 0 0 - - -;
#X obj 450 619 notein 1 1;
#X floatatom 507 643 3 0 0 0 - - -;
#X floatatom 452 701 3 0 0 0 - - -;
#X floatatom 509 701 3 0 0 0 - - -;
#X obj 452 675 notein 1 3;
#X floatatom 547 644 3 0 0 0 - - -;
#X obj 547 620 notein 1 1;
#X floatatom 604 644 3 0 0 0 - - -;
#X floatatom 549 702 3 0 0 0 - - -;
#X floatatom 606 702 3 0 0 0 - - -;
#X obj 549 676 notein 1 3;
#X floatatom 643 643 3 0 0 0 - - -;
#X obj 643 619 notein 1 1;
#X floatatom 700 643 3 0 0 0 - - -;
#X floatatom 645 701 3 0 0 0 - - -;
#X floatatom 702 701 3 0 0 0 - - -;
#X obj 645 675 notein 1 3;
#X floatatom 743 641 3 0 0 0 - - -;
#X obj 743 617 notein 1 1;
#X floatatom 800 641 3 0 0 0 - - -;
#X floatatom 745 699 3 0 0 0 - - -;
#X floatatom 802 699 3 0 0 0 - - -;
#X obj 745 673 notein 1 3;
#X obj 1243 623 notein 1 27;
#X floatatom 1225 414 3 0 0 0 - - -;
#X floatatom 1288 413 3 0 0 0 - - -;
#X obj 1225 388 notein 1 26;
#X obj 107 623 notein 1 4;
#X obj 109 679 notein 1 6;
#X floatatom 20 493 5 0 0 0 - - -;
#X floatatom 139 490 5 0 0 0 - - -;
#X floatatom 233 489 5 0 0 0 - - -;
#X floatatom 328 487 5 0 0 0 - - -;
#X floatatom 467 488 5 0 0 0 - - -;
#X floatatom 569 484 5 0 0 0 - - -;
#X floatatom 664 480 5 0 0 0 - - -;
#X floatatom 756 478 5 0 0 0 - - -;
#X floatatom 34 -33 5 0 0 0 - - -;
#X floatatom 152 -30 5 0 0 0 - - -;
#X floatatom 244 -36 5 0 0 0 - - -;
#X floatatom 340 -41 5 0 0 0 - - -;
#X floatatom 479 -18 5 0 0 0 - - -;
#X floatatom 580 -16 5 0 0 0 - - -;
#X floatatom 675 -20 5 0 0 0 - - -;
#X floatatom 578 208 5 0 0 0 - - -;
#X floatatom 673 207 5 0 0 0 - - -;
#X floatatom 766 205 5 0 0 0 - - -;
#X floatatom 767 -22 5 0 0 0 - - -;
#X floatatom 766 250 5 0 0 0 - - -;
#X floatatom 673 248 5 0 0 0 - - -;
#X floatatom 578 250 5 0 0 0 - - -;
#X obj 578 95 ctlin 51 1;
#X obj 673 95 ctlin 55 1;
#X obj 766 92 ctlin 59 1;
#X obj 768 -164 ctlin 58 1;
#X obj 675 -164 ctlin 54 1;
#X obj 580 -162 ctlin 50 1;
#X obj 479 -160 ctlin 46 1;
#X obj 340 -158 ctlin 28 1;
#X obj 245 -156 ctlin 24 1;
#X obj 152 -157 ctlin 20 1;
#X obj 34 -153 ctlin 16 1;
#X text 1241 -136 SEND ALL;
#X floatatom 757 526 5 0 0 0 - - -;
#X floatatom 664 524 5 0 0 0 - - -;
#X floatatom 569 526 5 0 0 0 - - -;
#X floatatom 468 527 5 0 0 0 - - -;
#X obj 757 503 * 0.82;
#X obj 664 503 * 0.81;
#X obj 468 507 * 0.62;
#X obj 569 506 * 0.625;
#X floatatom 328 534 5 0 0 0 - - -;
#X floatatom 233 536 5 0 0 0 - - -;
#X floatatom 139 533 5 0 0 0 - - -;
#X floatatom 19 533 5 0 0 0 - - -;
#X obj 139 513 * 0.37;
#X obj 18 513 * 0.365;
#X floatatom 768 25 5 0 0 0 - - -;
#X floatatom 675 23 5 0 0 0 - - -;
#X floatatom 580 25 5 0 0 0 - - -;
#X floatatom 479 26 5 0 0 0 - - -;
#X obj 580 5 * 8.5;
#X obj 478 6 * 8.49;
#X obj 675 3 * 7.9;
#X obj 768 2 * 8;
#X floatatom 340 3 5 0 0 0 - - -;
#X floatatom 244 4 5 0 0 0 - - -;
#X floatatom 150 11 5 0 0 0 - - -;
#X floatatom 34 6 5 0 0 0 - - -;
#X obj 340 -19 * 8.36;
#X floatatom 1285 127 3 0 0 0 - - -;
#X text 1246 593 BANK RIGHT;
#X text 1228 359 BANK LEFT;
#X obj 33 -14 * 100.24;
#X obj 150 -9 * 80.25;
#X obj 244 -16 * 80.35;
#X floatatom 36 126 3 0 0 0 - - -;
#X obj 45 151 bng 20 250 50 0 empty empty empty 17 7 0 10 -262144 -1
-1;
#X obj 72 132 outlet;
#X obj 193 125 outlet;
#X floatatom 250 120 3 0 0 0 - - -;
#X obj 256 143 bng 20 250 50 0 empty empty empty 17 7 0 10 -262144
-1 -1;
#X obj 286 126 outlet;
#X floatatom 345 118 3 0 0 0 - - -;
#X obj 364 143 bng 20 250 50 0 empty empty empty 17 7 0 10 -262144
-1 -1;
#X obj 381 124 outlet;
#X floatatom 156 128 3 0 0 0 - - -;
#X obj 166 149 bng 20 250 50 0 empty empty empty 17 7 0 10 -262144
-1 -1;
#X obj 36 176 knob 32 32 0 127 0 0 empty empty empty 0 -8 0 8 -262144
-1 -1 0 1;
#X obj 156 171 knob 32 32 0 127 0 0 empty empty empty 0 -8 0 8 -262144
-1 -1 0 1;
#X obj 250 170 knob 32 32 0 127 0 0 empty empty empty 0 -8 0 8 -262144
-1 -1 1440 1;
#X obj 345 166 knob 32 32 0 127 0 0 empty empty empty 0 -8 0 8 -262144
-1 -1 0 1;
#X floatatom 37 214 5 0 0 0 - - -;
#X floatatom 156 211 5 0 0 0 - - -;
#X floatatom 250 210 5 0 0 0 - - -;
#X floatatom 345 208 5 0 0 0 - - -;
#X floatatom 345 255 5 0 0 0 - - -;
#X floatatom 250 257 5 0 0 0 - - -;
#X floatatom 156 254 5 0 0 0 - - -;
#X floatatom 36 254 5 0 0 0 - - -;
#X obj 250 236 * 0.48;
#X obj 156 234 * 0.37;
#X obj 35 234 * 0.365;
#X obj 36 101 ctlin 17 1;
#X obj 158 94 ctlin 21 1;
#X obj 250 95 ctlin 25 1;
#X obj 345 93 ctlin 29 1;
#X floatatom 470 117 3 0 0 0 - - -;
#X obj 489 142 bng 20 250 50 0 empty empty empty 17 7 0 10 -262144
-1 -1;
#X obj 506 123 outlet;
#X obj 470 165 knob 32 32 0 127 0 0 empty empty empty 0 -8 0 8 -262144
-1 -1 0 1;
#X floatatom 470 207 5 0 0 0 - - -;
#X floatatom 470 254 5 0 0 0 - - -;
#X obj 470 92 ctlin 47 1;
#X msg 534 556 open yousuck.wav \, 1;
#X msg 411 560 open thom.wav \, 1;
#X msg 671 564 open beat.wav \, 1;
#X msg 789 570 open Worldstarmoney.wav \, 1;
#X obj 405 854 dac~;
#X obj 365 764 readsf~;
#X obj 1023 706 freeverb~;
#X obj 1040 732 dac~;
#X msg 1022 212 roomsize \$1;
#X msg 1022 257 damping \$1;
#X msg 1022 301 width \$1;
#X msg 1022 345 wet \$1;
#X msg 1022 389 dry \$1;
#X msg 1056 412 print;
#X msg 1075 451 freeze \$1;
#X msg 1080 488 bypass \$1;
#X obj 1080 469 tgl 15 0 empty empty empty 0 -6 0 8 -262144 -1 -1 0
1;
#X obj 1075 432 tgl 15 0 empty empty empty 0 -6 0 8 -262144 -1 -1 0
1;
#X obj 1034 366 hsl 60 18 0 1 0 1 empty empty dry 2 9 1 12 -225271
-1 -1 0 0;
#X obj 1034 322 hsl 60 18 0 1 0 1 empty empty wet 2 9 1 12 -225271
-1 -1 0 0;
#X obj 1034 278 hsl 60 18 0 1 0 1 empty empty width 2 9 1 12 -262131
-1 -1 0 0;
#X obj 1034 234 hsl 60 18 0 2 0 1 empty empty damping 2 9 1 12 -261689
-1 -1 0 0;
#X obj 1034 189 hsl 60 18 0.11 1.1 0 1 empty empty roomsize 2 9 1 12
-261689 -1 -1 0 0;
#X floatatom 1004 193 3 0 0 0 - - -;
#X floatatom 1004 238 3 0 0 0 - - -;
#X floatatom 1004 283 3 0 0 0 - - -;
#X floatatom 1004 326 3 0 0 0 - - -;
#X floatatom 1004 370 3 0 0 0 - - -;
#X obj 328 511 / 127;
#X obj 233 515 / 127;
#X obj 766 227 / 127;
#X obj 673 227 / 127;
#X obj 578 230 / 127;
#X obj 470 231 / 127;
#X obj 345 232 / 127;
#X obj -136 -39 phasor~;
#X msg 264 764 stop;
#X obj 188 757 bng 15 250 50 0 empty empty empty 17 7 0 10 -262144
-1 -1;
#X obj 1148 828 delread~ delayLeft 1000;
#X obj 1157 863 delread~ delayRight 1000;
#X obj 1129 746 delwrite~ delayLeft 6000;
#X obj 1138 781 delwrite~ delayRight 6000;
#X connect 0 0 1 0;
#X connect 0 0 103 0;
#X connect 3 0 4 0;
#X connect 3 0 106 0;
#X connect 6 0 7 0;
#X connect 6 0 120 0;
#X connect 9 0 3 0;
#X connect 9 0 5 0;
#X connect 10 0 6 0;
#X connect 10 0 8 0;
#X connect 11 0 12 0;
#X connect 11 0 101 0;
#X connect 14 0 15 0;
#X connect 14 0 102 0;
#X connect 17 0 18 0;
#X connect 17 0 117 0;
#X connect 21 0 22 0;
#X connect 21 0 105 0;
#X connect 24 0 25 0;
#X connect 24 0 115 0;
#X connect 27 0 28 0;
#X connect 27 0 109 0;
#X connect 30 0 31 0;
#X connect 30 0 110 0;
#X connect 33 0 34 0;
#X connect 33 0 111 0;
#X connect 36 0 37 0;
#X connect 36 0 118 0;
#X connect 40 0 41 0;
#X connect 40 0 108 0;
#X connect 43 0 44 0;
#X connect 43 0 116 0;
#X connect 46 0 47 0;
#X connect 46 0 112 0;
#X connect 47 0 287 0;
#X connect 49 0 50 0;
#X connect 49 0 113 0;
#X connect 50 0 286 0;
#X connect 52 0 53 0;
#X connect 52 0 114 0;
#X connect 53 0 288 0;
#X connect 55 0 56 0;
#X connect 55 0 119 0;
#X connect 56 0 289 0;
#X connect 58 0 59 0;
#X connect 58 0 107 0;
#X connect 60 0 61 0;
#X connect 60 0 104 0;
#X connect 63 0 64 0;
#X connect 63 0 122 0;
#X connect 66 0 67 0;
#X connect 66 0 123 0;
#X connect 69 0 70 0;
#X connect 69 0 124 0;
#X connect 72 0 73 0;
#X connect 72 0 125 0;
#X connect 75 0 76 0;
#X connect 75 0 126 0;
#X connect 78 0 79 0;
#X connect 78 0 127 0;
#X connect 81 0 82 0;
#X connect 81 0 121 0;
#X connect 83 0 39 0;
#X connect 83 0 58 0;
#X connect 84 0 62 0;
#X connect 84 0 81 0;
#X connect 85 0 40 0;
#X connect 85 0 42 0;
#X connect 86 0 63 0;
#X connect 86 0 65 0;
#X connect 87 0 43 0;
#X connect 87 0 45 0;
#X connect 88 0 66 0;
#X connect 88 0 68 0;
#X connect 89 0 46 0;
#X connect 89 0 48 0;
#X connect 90 0 69 0;
#X connect 90 0 71 0;
#X connect 91 0 72 0;
#X connect 91 0 74 0;
#X connect 92 0 75 0;
#X connect 92 0 77 0;
#X connect 93 0 78 0;
#X connect 93 0 80 0;
#X connect 94 0 95 0;
#X connect 94 0 128 0;
#X connect 97 0 94 0;
#X connect 97 0 96 0;
#X connect 98 0 49 0;
#X connect 98 0 51 0;
#X connect 99 0 52 0;
#X connect 99 0 54 0;
#X connect 100 0 55 0;
#X connect 100 0 57 0;
#X connect 101 0 196 0;
#X connect 102 0 197 0;
#X connect 103 0 189 0;
#X connect 104 0 190 0;
#X connect 105 0 191 0;
#X connect 106 0 181 0;
#X connect 107 0 182 0;
#X connect 108 0 183 0;
#X connect 109 0 193 0;
#X connect 110 0 194 0;
#X connect 111 0 195 0;
#X connect 112 0 185 0;
#X connect 113 0 186 0;
#X connect 114 0 187 0;
#X connect 115 0 192 0;
#X connect 116 0 184 0;
#X connect 117 0 198 0;
#X connect 118 0 199 0;
#X connect 119 0 188 0;
#X connect 132 0 130 0;
#X connect 132 1 131 0;
#X connect 138 0 323 0;
#X connect 140 0 139 0;
#X connect 140 1 141 0;
#X connect 144 0 142 0;
#X connect 144 1 143 0;
#X connect 146 0 145 0;
#X connect 146 1 147 0;
#X connect 150 0 148 0;
#X connect 150 1 149 0;
#X connect 152 0 151 0;
#X connect 152 1 153 0;
#X connect 156 0 154 0;
#X connect 156 1 155 0;
#X connect 158 0 157 0;
#X connect 158 1 159 0;
#X connect 162 0 160 0;
#X connect 162 1 161 0;
#X connect 164 0 163 0;
#X connect 164 1 165 0;
#X connect 168 0 166 0;
#X connect 168 1 167 0;
#X connect 170 0 169 0;
#X connect 170 1 171 0;
#X connect 174 0 172 0;
#X connect 174 1 173 0;
#X connect 175 0 133 0;
#X connect 175 1 134 0;
#X connect 178 0 176 0;
#X connect 178 1 177 0;
#X connect 179 0 135 0;
#X connect 179 1 136 0;
#X connect 180 0 137 0;
#X connect 180 1 138 0;
#X connect 181 0 228 0;
#X connect 182 0 227 0;
#X connect 183 0 315 0;
#X connect 184 0 314 0;
#X connect 185 0 221 0;
#X connect 186 0 222 0;
#X connect 187 0 220 0;
#X connect 188 0 219 0;
#X connect 189 0 245 0;
#X connect 190 0 246 0;
#X connect 191 0 247 0;
#X connect 192 0 241 0;
#X connect 193 0 234 0;
#X connect 194 0 233 0;
#X connect 195 0 235 0;
#X connect 196 0 318 0;
#X connect 197 0 317 0;
#X connect 198 0 316 0;
#X connect 199 0 236 0;
#X connect 200 0 308 0;
#X connect 201 0 307 0;
#X connect 202 0 306 0;
#X connect 203 0 11 0;
#X connect 203 0 13 0;
#X connect 204 0 14 0;
#X connect 204 0 16 0;
#X connect 205 0 17 0;
#X connect 205 0 19 0;
#X connect 206 0 36 0;
#X connect 206 0 38 0;
#X connect 207 0 33 0;
#X connect 207 0 35 0;
#X connect 208 0 30 0;
#X connect 208 0 32 0;
#X connect 209 0 27 0;
#X connect 209 0 29 0;
#X connect 210 0 24 0;
#X connect 210 0 26 0;
#X connect 211 0 21 0;
#X connect 211 0 23 0;
#X connect 212 0 20 0;
#X connect 212 0 60 0;
#X connect 213 0 0 0;
#X connect 213 0 2 0;
#X connect 219 0 215 0;
#X connect 220 0 216 0;
#X connect 221 0 218 0;
#X connect 222 0 217 0;
#X connect 227 0 225 0;
#X connect 228 0 226 0;
#X connect 233 0 231 0;
#X connect 234 0 232 0;
#X connect 235 0 230 0;
#X connect 236 0 229 0;
#X connect 241 0 237 0;
#X connect 245 0 240 0;
#X connect 246 0 239 0;
#X connect 247 0 238 0;
#X connect 248 0 249 0;
#X connect 248 0 260 0;
#X connect 252 0 253 0;
#X connect 252 0 262 0;
#X connect 255 0 256 0;
#X connect 255 0 263 0;
#X connect 258 0 259 0;
#X connect 258 0 261 0;
#X connect 260 0 264 0;
#X connect 261 0 265 0;
#X connect 262 0 266 0;
#X connect 263 0 267 0;
#X connect 264 0 274 0;
#X connect 265 0 273 0;
#X connect 266 0 272 0;
#X connect 267 0 320 0;
#X connect 268 0 304 0;
#X connect 272 0 269 0;
#X connect 273 0 270 0;
#X connect 274 0 271 0;
#X connect 275 0 248 0;
#X connect 275 0 250 0;
#X connect 276 0 251 0;
#X connect 276 0 258 0;
#X connect 277 0 252 0;
#X connect 277 0 254 0;
#X connect 278 0 255 0;
#X connect 278 0 257 0;
#X connect 279 0 280 0;
#X connect 279 0 282 0;
#X connect 282 0 283 0;
#X connect 283 0 319 0;
#X connect 284 0 305 0;
#X connect 285 0 279 0;
#X connect 285 0 281 0;
#X connect 286 0 291 0;
#X connect 287 0 291 0;
#X connect 288 0 291 0;
#X connect 289 0 291 0;
#X connect 291 0 290 0;
#X connect 291 0 292 0;
#X connect 291 1 290 1;
#X connect 291 1 292 1;
#X connect 292 0 293 0;
#X connect 292 0 326 0;
#X connect 292 1 293 1;
#X connect 292 1 327 0;
#X connect 294 0 292 0;
#X connect 295 0 292 0;
#X connect 296 0 292 0;
#X connect 297 0 292 0;
#X connect 298 0 292 0;
#X connect 299 0 292 0;
#X connect 300 0 292 0;
#X connect 301 0 292 0;
#X connect 302 0 301 0;
#X connect 303 0 300 0;
#X connect 304 0 298 0;
#X connect 304 0 313 0;
#X connect 305 0 297 0;
#X connect 305 0 312 0;
#X connect 306 0 296 0;
#X connect 306 0 311 0;
#X connect 307 0 295 0;
#X connect 307 0 310 0;
#X connect 308 0 294 0;
#X connect 308 0 309 0;
#X connect 314 0 223 0;
#X connect 315 0 224 0;
#X connect 316 0 200 0;
#X connect 317 0 201 0;
#X connect 318 0 202 0;
#X connect 319 0 284 0;
#X connect 320 0 268 0;
#X connect 322 0 291 0;
#X connect 323 0 322 0;
#X connect 324 0 293 0;
#X connect 325 0 293 1;